<svg width="25" height="23" viewBox="0 0 25 23" fill="none" xmlns="http://www.w3.org/2000/svg">
<path d="M13.9266 2.00861L15.2799 6.17376C15.6146 7.20382 16.5745 7.90122 17.6576 7.90122H22.0371C23.4902 7.90122 24.0943 9.76064 22.9187 10.6147L19.3757 13.1889C18.4994 13.8256 18.1328 14.954 18.4675 15.984L19.8208 20.1492C20.2698 21.5312 18.6881 22.6803 17.5126 21.8262L13.9695 19.252C13.0932 18.6154 11.9068 18.6154 11.0305 19.252L7.48745 21.8262C6.31188 22.6803 4.73016 21.5312 5.17918 20.1492L6.53252 15.984C6.86721 14.954 6.50056 13.8256 5.62435 13.189L2.08126 10.6147C0.905686 9.76064 1.50985 7.90122 2.96293 7.90122H7.34243C8.4255 7.90122 9.38539 7.20382 9.72007 6.17376L11.0734 2.00861C11.5224 0.626645 13.4776 0.626646 13.9266 2.00861Z" fill="white" stroke="#FF0000"/>
</svg>
