<?xml version="1.0" encoding="iso-8859-1"?>
<!-- Generator: Adobe Illustrator 19.0.0, SVG Export Plug-In . SVG Version: 6.00 Build 0)  -->
<svg version="1.1" id="Layer_1" xmlns="http://www.w3.org/2000/svg" xmlns:xlink="http://www.w3.org/1999/xlink" x="0px" y="0px"
	 viewBox="0 0 512 512" style="enable-background:new 0 0 512 512;" xml:space="preserve">
<g>
	<g>
		<path d="M473.043,228.174c0-46.03-37.448-83.478-83.478-83.478c-17.487,0-34.031,5.3-47.843,14.998
			c-14.82-24.441-39.795-42.065-69.026-46.99c0-10.018,0-18.156,0-29.225c0-27.618,22.469-50.087,50.087-50.087
			c9.22,0,16.696-7.475,16.696-16.696S332.003,0,322.783,0c-29.588,0-55.611,15.487-70.44,38.766
			c-14.926-16.927-36.749-27.636-61.038-27.636h-35.478c-9.22,0-16.696,7.475-16.696,16.696v35.478
			c0,33.348,20.167,62.061,48.939,74.623c-6.895,6.373-12.899,13.697-17.792,21.768c-13.812-9.699-30.356-14.999-47.843-14.999
			c-46.03,0-83.478,37.448-83.478,83.478c0,41.006,29.727,75.175,68.757,82.152c-1.299,5.891-1.975,11.932-1.975,18.022
			c0,41.006,29.727,75.175,68.757,82.151c-1.299,5.891-1.975,11.932-1.975,18.022C172.522,474.552,209.97,512,256,512
			s83.478-37.448,83.478-83.478c0-6.091-0.676-12.131-1.975-18.022c39.03-6.977,68.757-41.146,68.757-82.151
			c0-6.091-0.676-12.131-1.975-18.022C443.316,303.349,473.043,269.18,473.043,228.174z M256,144.696
			c36.824,0,66.783,29.959,66.783,66.783S292.824,278.261,256,278.261s-66.783-29.959-66.783-66.783S219.176,144.696,256,144.696z
			 M172.522,63.304V44.522h18.783c26.467,0,48,21.533,48,48v18.783h-18.783C194.055,111.304,172.522,89.771,172.522,63.304z
			 M122.435,278.261c-27.618,0-50.087-22.469-50.087-50.087c0-27.618,22.469-50.087,50.087-50.087
			c13.401,0,25.872,5.206,35.193,14.46c-1.178,6.133-1.802,12.461-1.802,18.932c0,15.215,3.416,29.647,9.512,42.576
			C156.363,268.961,140.217,278.261,122.435,278.261z M189.217,378.435c-27.618,0-50.087-22.469-50.087-50.087
			c0-6.645,1.322-13.187,3.843-19.251c16.652-4.202,31.536-13.431,42.683-26.372c13.493,13.324,30.738,22.857,49.989,26.847
			c2.394,5.931,3.659,12.305,3.659,18.777C239.304,355.966,216.835,378.435,189.217,378.435z M256,478.609
			c-27.618,0-50.087-22.469-50.087-50.087c0-6.648,1.323-13.194,3.848-19.26c18.731-4.758,34.957-15.862,46.239-30.885
			c11.282,15.023,27.508,26.126,46.239,30.885c2.524,6.066,3.848,12.612,3.848,19.26C306.087,456.14,283.618,478.609,256,478.609z
			 M322.783,378.435c-27.618,0-50.087-22.469-50.087-50.087c0-6.471,1.264-12.846,3.66-18.777
			c19.251-3.989,36.494-13.522,49.988-26.847c11.147,12.942,26.031,22.171,42.682,26.372c2.522,6.064,3.844,12.606,3.844,19.251
			C372.87,355.966,350.401,378.435,322.783,378.435z M389.565,278.261c-17.782,0-33.929-9.299-42.903-24.208
			c6.096-12.928,9.512-27.36,9.512-42.575c0-6.471-0.624-12.798-1.802-18.931c9.322-9.256,21.792-14.461,35.193-14.461
			c27.618,0,50.087,22.469,50.087,50.087C439.652,255.792,417.183,278.261,389.565,278.261z"/>
	</g>
</g>
<g>
</g>
<g>
</g>
<g>
</g>
<g>
</g>
<g>
</g>
<g>
</g>
<g>
</g>
<g>
</g>
<g>
</g>
<g>
</g>
<g>
</g>
<g>
</g>
<g>
</g>
<g>
</g>
<g>
</g>
</svg>
