<svg width="34" height="113" viewBox="0 0 34 113" fill="none" xmlns="http://www.w3.org/2000/svg">
<path d="M22.2955 37.7934V0H10.9798V37.7934C4.69499 39.5999 0.102783 45.2703 0.102783 51.9972V61.4224V112.394H33.1725V61.4224V51.9972C33.1728 45.2703 28.5808 39.5995 22.2955 37.7934Z" fill="#1A2340"/>
<path d="M27.8919 59.5385H5.26074V105.503H27.8919V59.5385Z" fill="white"/>
<path d="M16.04 74.98C14.68 74.98 13.4 75.34 12.2 76.06L12.6 78.72C13.28 78.3067 13.9067 78.0067 14.48 77.82C15.0667 77.6333 15.5667 77.54 15.98 77.54C16.38 77.54 16.7067 77.6467 16.96 77.86C17.2133 78.06 17.34 78.3333 17.34 78.68C17.34 79.12 17.0467 79.5667 16.46 80.02C15.8867 80.4733 15.1333 80.8467 14.2 81.14L14.36 84.38L16.72 85.16L17 82.64C18.0933 82.1867 18.9333 81.6133 19.52 80.92C20.12 80.2133 20.42 79.4733 20.42 78.7C20.42 77.58 20.0267 76.68 19.24 76C18.4667 75.32 17.4 74.98 16.04 74.98ZM15.36 85.7C14.8933 85.7 14.5 85.86 14.18 86.18C13.86 86.5 13.7 86.8933 13.7 87.36C13.7 87.8133 13.86 88.2 14.18 88.52C14.5 88.84 14.8933 89 15.36 89C15.8267 89 16.22 88.8467 16.54 88.54C16.86 88.22 17.02 87.8267 17.02 87.36C17.02 86.8933 16.86 86.5 16.54 86.18C16.22 85.86 15.8267 85.7 15.36 85.7Z" fill="black"/>
</svg>
