<svg width="118" height="85" viewBox="0 0 118 85" fill="none" xmlns="http://www.w3.org/2000/svg">
<path d="M87.4806 40.3998L78.727 38.0543C77.5671 37.7436 76.3845 38.0754 75.5564 38.8295L73.1535 34.3732C71.6585 31.6006 69.5612 29.1744 67.0426 27.2912L73.351 20.9828C73.7934 20.5404 73.7934 19.8231 73.351 19.3807L66.3022 12.3317C65.8598 11.8894 65.1425 11.8894 64.7001 12.3317L54.0527 22.979C51.1943 22.9806 48.4062 23.5358 45.7652 24.6297C43.1206 25.7251 40.7534 27.3069 38.7293 29.3308L35.6215 32.4388C34.8084 33.2519 34.3607 34.3328 34.3607 35.4826C34.3607 36.6324 34.8085 37.7133 35.6215 38.5265C36.1804 39.0854 36.8561 39.4571 37.5707 39.6438L32.0959 52.094C31.9078 52.5216 32.0015 53.0208 32.3318 53.3511C32.5489 53.568 32.8387 53.6829 33.1332 53.6829C33.287 53.6829 33.4422 53.6516 33.5889 53.5871L46.0408 48.1116C46.2272 48.8273 46.5991 49.5041 47.1587 50.0638C47.9979 50.903 49.1003 51.3226 50.2026 51.3226C51.3049 51.3226 52.4072 50.903 53.2464 50.0638L54.4798 48.8304L54.9737 49.3243C57.5673 55.1605 63.2045 59.0053 69.5464 59.323C69.4599 60.0469 69.6078 60.7761 69.9789 61.4187C70.4327 62.2049 71.1656 62.7672 72.0424 63.0021L80.796 65.3477C81.0895 65.4263 81.3843 65.4638 81.6747 65.4638C83.175 65.4638 84.5518 64.4609 84.9582 62.9446L86.0716 58.789C86.2336 58.1848 85.875 57.5637 85.2706 57.4017C84.6666 57.2397 84.0451 57.5983 83.8833 58.2027L82.7698 62.3582C82.6082 62.9617 81.9858 63.3211 81.3824 63.1592L72.6288 60.8137C72.3365 60.7354 72.0923 60.5479 71.9409 60.2859C71.7897 60.0239 71.7495 59.7186 71.8278 59.4263L76.7533 41.0438C76.9151 40.4405 77.5378 40.0814 78.1407 40.2428L86.8944 42.5882C87.4977 42.75 87.8571 43.3724 87.6954 43.9757L86.5225 48.3532C86.3605 48.9574 86.7191 49.5785 87.3235 49.7405C87.9274 49.9025 88.5489 49.5439 88.7108 48.9395L89.8837 44.562C90.3688 42.7519 89.2907 40.8849 87.4806 40.3998V40.3998ZM70.948 20.1817L55.118 36.0117L54.9906 35.8842C54.3451 35.2387 53.5464 34.803 52.677 34.6079L69.0255 18.2592L70.948 20.1817ZM65.5012 14.7348L67.4235 16.6572L42.1896 41.891L40.2672 39.9686L65.5012 14.7348ZM37.2235 36.9245C36.8384 36.5394 36.6263 36.0273 36.6263 35.4826C36.6263 34.938 36.8384 34.426 37.2235 34.0408L40.3313 30.9329C43.4213 27.8429 47.3692 25.9226 51.6378 25.3938L40.1071 36.9245C39.3122 37.7197 38.0185 37.7195 37.2235 36.9245V36.9245ZM39.0354 41.941L43.7418 46.6473L35.3415 50.3413L39.0354 41.941ZM45.7142 45.4155L43.7918 43.4931L46.9883 40.2967C47.1788 41.1461 47.6026 41.9531 48.2622 42.6128L48.3896 42.7403L45.7142 45.4155ZM51.6442 48.4617C50.8491 49.2567 49.5555 49.2566 48.7605 48.4618C47.9655 47.6666 47.9655 46.373 48.7605 45.578L49.9939 44.3447L52.8776 47.2282L51.6442 48.4617ZM70.112 57.076C64.3749 56.9647 59.2363 53.5183 56.967 48.2281C56.9102 48.0958 56.8288 47.9756 56.7269 47.8737L49.8641 41.0108C48.8924 40.0392 48.8924 38.4581 49.8641 37.4864C50.3348 37.0158 50.9607 36.7565 51.6263 36.7565C52.2919 36.7565 52.9178 37.0158 53.3885 37.4864L60.2513 44.3493C60.6937 44.7915 61.411 44.7915 61.8534 44.3493C62.2958 43.9069 62.2958 43.1896 61.8534 42.7472L56.72 37.6138L65.4204 28.9134C67.794 30.6257 69.7684 32.8688 71.1594 35.4484L74.331 41.3303L70.112 57.076Z" fill="#F9DC5C"/>
<path d="M86.2974 54.7045C85.9983 54.7045 85.7072 54.5832 85.4953 54.3724C85.2846 54.1607 85.1646 53.8696 85.1646 53.5716C85.1646 53.2725 85.2846 52.9814 85.4953 52.7696C85.706 52.5589 85.9983 52.4388 86.2974 52.4388C86.5953 52.4388 86.8876 52.5589 87.0983 52.7696C87.309 52.9814 87.4302 53.2725 87.4302 53.5716C87.4302 53.8696 87.309 54.1618 87.0983 54.3724C86.8864 54.5832 86.5953 54.7045 86.2974 54.7045Z" fill="#F9DC5C"/>
<path d="M18.8444 14.6893C18.0358 14.9936 17.3116 15.386 16.6717 15.8662C16.0412 16.3258 15.4708 16.8995 14.9604 17.5874L16.3231 20.0492C16.8465 19.3051 17.4075 18.6836 18.0061 18.1847C18.6197 17.6802 19.1811 17.3321 19.6902 17.1404C20.2443 16.9319 20.7573 16.9097 21.2295 17.0739C21.7016 17.2381 22.0306 17.5672 22.2167 18.0614C22.4421 18.6604 22.3222 19.3637 21.857 20.1714C21.3861 20.9641 20.6717 21.7459 19.7139 22.5168L21.2887 26.1553L23.6849 26.2534L22.9084 23.0324C23.763 22.0782 24.3787 21.0343 24.7555 19.9009C25.1324 18.7674 25.1714 17.8039 24.8726 17.0103C24.4104 15.7824 23.6547 14.9556 22.6054 14.53C21.5506 14.0894 20.2969 14.1425 18.8444 14.6893ZM22.7735 27.4427C22.3093 27.6175 21.9717 27.9241 21.7606 28.3625C21.5645 28.7954 21.5539 29.2439 21.7286 29.7081C21.9034 30.1723 22.2071 30.5024 22.64 30.6985C23.0878 30.8889 23.5438 30.8968 24.008 30.722C24.4722 30.5473 24.8023 30.2435 24.9984 29.8107C25.1945 29.3778 25.2052 28.9293 25.0304 28.4651C24.8557 28.0009 24.5519 27.6708 24.119 27.4747C23.6862 27.2786 23.2377 27.268 22.7735 27.4427Z" fill="#1A2340"/>
<path d="M98.4456 17.4213C97.6002 17.243 96.7786 17.1842 95.9809 17.2448C95.2022 17.2932 94.4127 17.47 93.6124 17.7754L93.437 20.5837C94.2785 20.2379 95.0858 20.0157 95.8587 19.9172C96.6474 19.8219 97.3079 19.8304 97.8401 19.9427C98.4194 20.0648 98.8639 20.3221 99.1736 20.7145C99.4832 21.1069 99.5836 21.5614 99.4746 22.078C99.3425 22.7042 98.8631 23.2326 98.0365 23.6633C97.2131 24.0783 96.1903 24.3531 94.9682 24.4878L94.3388 28.4021L96.306 29.7737L97.3839 26.6407C98.6176 26.2959 99.6981 25.7471 100.625 24.9943C101.553 24.2415 102.104 23.4502 102.279 22.6205C102.55 21.3367 102.357 20.2333 101.702 19.3101C101.05 18.3712 99.9642 17.7417 98.4456 17.4213ZM94.898 30.2861C94.4126 30.1837 93.9631 30.2606 93.5493 30.5167C93.1512 30.7762 92.901 31.1485 92.7986 31.6338C92.6962 32.1192 92.7747 32.5609 93.0342 32.959C93.3092 33.3604 93.6894 33.6123 94.1748 33.7147C94.6601 33.817 95.1018 33.7385 95.4999 33.4791C95.898 33.2197 96.1483 32.8473 96.2506 32.362C96.353 31.8767 96.2745 31.435 96.0151 31.0368C95.7556 30.6387 95.3833 30.3885 94.898 30.2861Z" fill="#1A2340"/>
<path d="M48.1731 57.5218C47.5253 57.5036 46.9112 57.5704 46.3307 57.7222C45.7626 57.8624 45.2037 58.0988 44.6542 58.4316L44.9016 60.5273C45.4761 60.1593 46.042 59.887 46.5991 59.7105C47.1683 59.5344 47.6568 59.4521 48.0646 59.4635C48.5085 59.4759 48.871 59.6061 49.1521 59.8541C49.4333 60.1021 49.5683 60.424 49.5572 60.8198C49.5438 61.2996 49.261 61.7539 48.7087 62.1826C48.1569 62.5993 47.4391 62.9393 46.5553 63.2027L46.6161 66.1755L48.2518 66.9236L48.6267 64.4672C49.4908 64.0472 50.2145 63.4973 50.7978 62.8173C51.3811 62.1374 51.6816 61.4796 51.6994 60.8438C51.727 59.8602 51.4369 59.0718 50.8293 58.4785C50.222 57.8733 49.3366 57.5544 48.1731 57.5218ZM47.2815 67.4907C46.9097 67.4803 46.5883 67.5973 46.3173 67.8418C46.0584 68.0867 45.9237 68.395 45.9133 68.7669C45.9028 69.1387 46.0201 69.4541 46.2649 69.7131C46.5217 69.9724 46.8361 70.1073 47.2079 70.1177C47.5798 70.1281 47.8952 70.0109 48.1542 69.766C48.4131 69.5212 48.5478 69.2128 48.5582 68.841C48.5686 68.4691 48.4514 68.1537 48.2066 67.8948C47.9617 67.6358 47.6534 67.5011 47.2815 67.4907Z" fill="#1A2340"/>
</svg>
