<?xml version="1.0" encoding="iso-8859-1"?>
<!-- Generator: Adobe Illustrator 16.0.0, SVG Export Plug-In . SVG Version: 6.00 Build 0)  -->
<!DOCTYPE svg PUBLIC "-//W3C//DTD SVG 1.1//EN" "http://www.w3.org/Graphics/SVG/1.1/DTD/svg11.dtd">
<svg version="1.1" id="Capa_1" xmlns="http://www.w3.org/2000/svg" xmlns:xlink="http://www.w3.org/1999/xlink" x="0px" y="0px"
	 width="439.33px" height="439.33px" viewBox="0 0 439.33 439.33" style="enable-background:new 0 0 439.33 439.33;"
	 xml:space="preserve" fill="white">
<g>
	<g>
		<path d="M155.413,99.879V47.483h8.044V0h-59.358v47.483h8.044v52.396c-28.428,9.139-49.006,35.787-49.006,67.252V439.33h141.281
			V336.553h-96.159V224.861h96.159v-57.73C204.418,135.666,183.84,109.018,155.413,99.879z"/>
		<path d="M327.188,99.879V47.483h8.045V0h-59.359v47.483h8.045v52.396c-28.428,9.139-49.006,35.787-49.006,67.252V439.33h141.281
			V167.131C376.193,135.666,355.615,109.018,327.188,99.879z M345.396,336.553h-79.688V224.861h79.688V336.553z"/>
	</g>
</g>
</svg>
