<svg width="44" height="61" viewBox="0 0 44 61" fill="none" xmlns="http://www.w3.org/2000/svg">
<path d="M12.8123 13.868V6.59291H13.9292V0H5.68748V6.59291H6.80437V13.868C2.85721 15.1369 0 18.8369 0 23.2058V61H19.6166V46.7296H6.26509V31.2215H19.6166V23.2058C19.6166 18.8369 16.7593 15.1369 12.8123 13.868Z" fill="#F9DC5C"/>
<path d="M36.6629 13.868V6.59291H37.7799V0H29.5381V6.59291H30.6551V13.868C26.7079 15.1369 23.8507 18.8369 23.8507 23.2058V61H43.4673V23.2058C43.4671 18.8369 40.6099 15.1369 36.6629 13.868ZM39.191 46.7296H28.1265V31.2215H39.191V46.7296Z" fill="#F9DC5C"/>
</svg>
